<svg xmlns="http://www.w3.org/2000/svg" xmlns:xlink="http://www.w3.org/1999/xlink" fill="none" stroke="none" stroke-linecap="square" stroke-miterlimit="10" version="1.1" viewBox="0 0 311 166.501"><clipPath id="p.0"><path d="m0 0l311.0 0l0 166.50131l-311.0 0l0 -166.50131z" clip-rule="nonzero"/></clipPath><g clip-path="url(#p.0)"><path fill="#000" fill-opacity="0" fill-rule="evenodd" d="m0 0l311.0 0l0 166.50131l-311.0 0z"/><path fill="#0f9d58" fill-rule="evenodd" d="m112.85939 53.88791l42.67717 -42.62992l42.67717 42.62992l-42.67717 42.62992z"/><path fill="#0d652d" fill-rule="evenodd" d="m198.13948 138.55876l-42.645676 -42.006462l42.645676 -42.65496z"/><path fill="#f4b400" fill-rule="evenodd" d="m112.83195 96.731995l0 -26.866142l26.866142 26.866142z"/><path fill="#f4b400" fill-rule="evenodd" d="m112.81332 112.34393l42.64283 0l0 42.639374l-42.64283 0z"/><path fill="#f4b400" fill-rule="evenodd" d="m197.9522 154.98346l-42.642822 -42.639374l0 42.639374z"/><path fill="#db4437" fill-rule="evenodd" d="m214.17651 155.2446l0 -85.25985l85.322845 85.25985z"/><path fill="#4285f4" fill-rule="evenodd" d="m96.854645 155.2446l0 -85.25985l-85.35433 85.25985z"/><path fill="#e37400" fill-rule="evenodd" d="m155.51237 154.9656l-42.645676 -42.614174l0 42.614174z"/><path fill="#f4b400" fill-rule="evenodd" d="m198.14633 154.96523l-42.23108 -42.614174l-43.02877 0l42.23107 42.614174z"/></g></svg>